<svg width="21" height="24" viewBox="0 0 21 24" fill="none" xmlns="http://www.w3.org/2000/svg">
<path d="M2.00535 24C1.46535 24 0.997021 23.8017 0.600361 23.405C0.203701 23.0083 0.00537109 22.54 0.00537109 22V4.34001H2.00535V22H15.8854V24H2.00535ZM6.00534 20C5.46534 20 4.99701 19.8017 4.60035 19.405C4.20369 19.0084 4.00536 18.54 4.00536 18.0001V2.00001C4.00536 1.46001 4.20369 0.991679 4.60035 0.59502C4.99701 0.19834 5.46534 0 6.00534 0H18.4054C18.9454 0 19.4137 0.19834 19.8104 0.59502C20.207 0.991679 20.4054 1.46001 20.4054 2.00001V18.0001C20.4054 18.54 20.207 19.0084 19.8104 19.405C19.4137 19.8017 18.9454 20 18.4054 20H6.00534ZM6.00534 18.0001H18.4054V2.00001H6.00534V18.0001Z" fill="#3C4043"/>
</svg>
