<svg width="21" height="24" viewBox="0 0 21 24" fill="none" xmlns="http://www.w3.org/2000/svg">
<path d="M1.99998 24C1.45998 24 0.99165 23.8017 0.59499 23.405C0.19833 23.0083 0 22.54 0 22V4.34001H1.99998V22H15.88V24H1.99998ZM5.99997 20C5.45997 20 4.99164 19.8017 4.59498 19.405C4.19832 19.0084 3.99999 18.54 3.99999 18.0001V2.00001C3.99999 1.46001 4.19832 0.991679 4.59498 0.59502C4.99164 0.19834 5.45997 0 5.99997 0H18.4C18.94 0 19.4083 0.19834 19.805 0.59502C20.2017 0.991679 20.4 1.46001 20.4 2.00001V18.0001C20.4 18.54 20.2017 19.0084 19.805 19.405C19.4083 19.8017 18.94 20 18.4 20H5.99997Z" fill="#3C4043"/>
</svg>
