<svg width="37.000000pt" height="48.000000pt" viewBox="0 0 37.000000 48.000000"  xmlns="http://www.w3.org/2000/svg" preserveAspectRatio="xMidYMid meet">
<g transform="translate(0.000000,48.000000) scale(0.100000,-0.100000)"
fill="#258ca8" stroke="none">
<path d="M127 465 c-22 -7 -50 -24 -64 -37 -51 -47 -57 -71 -61 -255 l-4 -173
66 0 66 0 0 163 c0 179 2 187 57 187 25 0 36 -6 44 -24 16 -35 -3 -66 -41 -66
l-30 0 0 -65 c0 -72 2 -74 72 -55 77 22 128 89 128 170 0 73 -53 139 -128 160
-47 13 -58 12 -105 -5z"/>
</g>
</svg>
